HIERARCHY
ROOT SpineBase
{
  OFFSET 0.000000 0.000000 0.000000
  CHANNELS 6 Xposition Yposition Zposition Zrotation Xrotation Yrotation
  JOINT SpineMid
  {
    OFFSET 0.000000 31.231241 -0.000000
    CHANNELS 3 Zrotation Xrotation Yrotation
    JOINT SpineShoulder
    {
      OFFSET -0.163358 23.208829 -0.832257
      CHANNELS 3 Zrotation Xrotation Yrotation
      JOINT Neck
      {
        OFFSET -0.128915 7.688522 -0.619115
        CHANNELS 3 Zrotation Xrotation Yrotation
        JOINT Head
        {
          OFFSET -0.001792 13.475731 -0.176741
          CHANNELS 3 Zrotation Xrotation Yrotation
          End Site
          {
            OFFSET 0 0 0
          }
        }
      }
      JOINT ShoulderLeft
      {
        OFFSET -18.220251 -3.197668 1.739210
        CHANNELS 3 Zrotation Xrotation Yrotation
        JOINT ElbowLeft
        {
          OFFSET -3.958652 -29.194390 0.569646
          CHANNELS 3 Zrotation Xrotation Yrotation
          JOINT WristLeft
          {
            OFFSET -0.784838 -21.705716 -6.807822
            CHANNELS 3 Zrotation Xrotation Yrotation
            JOINT HandLeft
            {
              OFFSET 0.843292 -5.632600 0.005910
              CHANNELS 3 Zrotation Xrotation Yrotation
              JOINT HandTipLeft
              {
                OFFSET -0.262709 -6.734017 -2.464493
                CHANNELS 3 Zrotation Xrotation Yrotation
                End Site
                {
                  OFFSET 0 0 0
                }
              }
              JOINT ThumbLeft
              {
                OFFSET 4.304726 1.792355 -0.109344
                CHANNELS 3 Zrotation Xrotation Yrotation
                End Site
                {
                  OFFSET 0 0 0
                }
              }
            }
          }
        }
      }
      JOINT ShoulderRight
      {
        OFFSET 16.300576 -4.017684 -6.045665
        CHANNELS 3 Zrotation Xrotation Yrotation
        JOINT ElbowRight
        {
          OFFSET 3.110449 -26.863406 -0.526394
          CHANNELS 3 Zrotation Xrotation Yrotation
          JOINT WristRight
          {
            OFFSET -0.087164 -23.399743 -7.642825
            CHANNELS 3 Zrotation Xrotation Yrotation
            JOINT HandRight
            {
              OFFSET -0.368076 -7.373777 -0.239303
              CHANNELS 3 Zrotation Xrotation Yrotation
              JOINT HandTipRight
              {
                OFFSET -0.090868 -7.376819 -1.470099
                CHANNELS 3 Zrotation Xrotation Yrotation
                End Site
                {
                  OFFSET 0 0 0
                }
              }
              JOINT ThumbRight
              {
                OFFSET -3.835318 0.817154 1.370832
                CHANNELS 3 Zrotation Xrotation Yrotation
                End Site
                {
                  OFFSET 0 0 0
                }
              }
            }
          }
        }
      }
    }
  }
  JOINT HipLeft
  {
    OFFSET -7.310687 1.134694 -2.113568
    CHANNELS 3 Zrotation Xrotation Yrotation
    JOINT KneeLeft
    {
      OFFSET -1.972514 -34.332396 5.133488
      CHANNELS 3 Zrotation Xrotation Yrotation
      JOINT AnkleLeft
      {
        OFFSET 1.202242 -34.794190 8.745008
        CHANNELS 3 Zrotation Xrotation Yrotation
        JOINT FootLeft
        {
          OFFSET -1.395493 -7.900958 -5.946003
          CHANNELS 3 Zrotation Xrotation Yrotation
          End Site
          {
            OFFSET 0 0 0
          }
        }
      }
    }
  }
  JOINT HipRight
  {
    OFFSET 5.785064 1.282836 -4.827999
    CHANNELS 3 Zrotation Xrotation Yrotation
    JOINT KneeRight
    {
      OFFSET 5.042447 -33.429845 3.025995
      CHANNELS 3 Zrotation Xrotation Yrotation
      JOINT AnkleRight
      {
        OFFSET 3.908719 -37.247184 9.126759
        CHANNELS 3 Zrotation Xrotation Yrotation
        JOINT FootRight
        {
          OFFSET 1.236205 -7.343191 -6.916930
          CHANNELS 3 Zrotation Xrotation Yrotation
          End Site
          {
            OFFSET 0 0 0
          }
        }
      }
    }
  }
}
MOTION
Frames: 9
Frame Time: 0.033333
64.101284 76.604647 289.957519 0.005757 -0.157502 11.598841 0.026028 0.155443 -11.598868 -0.000000 0.000000 0.000000 -0.000000 0.000000 0.000000 0.000000 0.000000 0.000000 -0.902875 -1.679234 0.196598 -1.924960 -1.735773 0.793033 -4.694799 18.308860 2.593174 17.209783 -21.070770 -1.514348 0.000000 0.000000 0.000000 0.000000 0.000000 0.000000 1.299350 -0.987883 -0.128500 -0.567319 -1.684315 -0.074040 -13.656599 12.021509 1.844217 10.077396 -11.214930 1.200597 0.000000 0.000000 0.000000 0.000000 0.000000 0.000000 0.026028 0.155443 -11.598868 -0.000000 0.000000 0.000000 -1.961524 -0.064641 1.482697 0.000000 0.000000 0.000000 0.026028 0.155443 -11.598868 -0.000000 0.000000 0.000000 -0.961095 -0.325177 0.851318 0.000000 0.000000 0.000000
64.099693 76.578933 290.006678 -0.026230 -0.155166 11.688717 0.057122 0.146634 -11.688826 -0.000000 0.000000 0.000000 -0.000000 0.000000 0.000000 0.000000 0.000000 0.000000 -0.861901 -1.600285 0.187908 -1.797675 -1.691430 0.745470 -3.829564 17.545586 2.309589 16.298447 -21.749614 -1.547088 0.000000 0.000000 0.000000 0.000000 0.000000 0.000000 1.120347 -0.895610 -0.116786 -0.650353 -1.518958 -0.007453 -12.367688 10.834113 1.487121 9.542737 -11.792015 1.023305 0.000000 0.000000 0.000000 0.000000 0.000000 0.000000 0.057122 0.146634 -11.688826 -0.000000 0.000000 0.000000 -1.906899 -0.040996 1.437846 0.000000 0.000000 0.000000 0.057122 0.146634 -11.688826 -0.000000 0.000000 0.000000 -0.614435 1.589559 0.844623 0.000000 0.000000 0.000000
64.101422 76.552404 290.051471 -0.060636 -0.138639 11.797291 0.087700 0.123313 -11.797459 -0.000000 0.000000 0.000000 -0.000000 0.000000 0.000000 0.000000 0.000000 0.000000 -1.016263 -1.726782 0.198720 -1.283165 -1.170352 0.612648 -3.209104 16.638487 2.132818 15.917998 -22.190571 -1.622804 0.000000 0.000000 0.000000 0.000000 0.000000 0.000000 0.993151 -0.792952 -0.104314 -0.629999 -1.469895 0.010330 -11.021987 9.744156 1.199867 7.971250 -10.860820 0.882525 0.000000 0.000000 0.000000 0.000000 0.000000 0.000000 0.087700 0.123313 -11.797459 -0.000000 0.000000 0.000000 -1.922843 0.002757 1.442386 0.000000 0.000000 0.000000 0.087700 0.123313 -11.797459 -0.000000 0.000000 0.000000 -0.365394 3.204747 0.871542 0.000000 0.000000 0.000000
64.103616 76.521981 290.096391 -0.095238 -0.110553 11.912679 0.116007 0.088512 -11.912860 -0.000000 0.000000 0.000000 -0.000000 0.000000 0.000000 0.000000 0.000000 0.000000 -1.372711 -2.072548 0.228990 -0.241748 0.007570 0.334659 -3.518429 14.933660 2.094908 14.711678 -21.664431 -1.660537 0.000000 0.000000 0.000000 0.000000 0.000000 0.000000 0.907952 -0.704800 -0.093741 -0.585448 -1.460569 0.010065 -9.487800 8.275319 0.925734 7.349000 -9.664990 0.660329 0.000000 0.000000 0.000000 0.000000 0.000000 0.000000 0.116007 0.088512 -11.912860 -0.000000 0.000000 0.000000 -1.887267 -0.016191 1.418967 0.000000 0.000000 0.000000 0.116007 0.088512 -11.912860 -0.000000 0.000000 0.000000 -0.257774 3.724526 0.852620 0.000000 0.000000 0.000000
64.102452 76.500902 290.142152 -0.142907 -0.098767 12.003107 0.160323 0.066888 -12.003323 -0.000000 0.000000 0.000000 -0.000000 0.000000 0.000000 0.000000 0.000000 0.000000 -1.895509 -2.600968 0.271987 0.939176 1.331095 0.023764 -3.604457 14.350060 2.241170 15.112513 -22.362612 -1.710080 0.000000 0.000000 0.000000 0.000000 0.000000 0.000000 0.862282 -0.626232 -0.084630 -0.498646 -1.580746 -0.013290 -7.749939 6.978899 0.707224 6.156326 -7.736649 0.457112 0.000000 0.000000 0.000000 0.000000 0.000000 0.000000 0.160323 0.066888 -12.003323 -0.000000 0.000000 0.000000 -1.946704 0.161817 1.433435 0.000000 0.000000 0.000000 0.160323 0.066888 -12.003323 -0.000000 0.000000 0.000000 -0.191711 3.990273 0.832196 0.000000 0.000000 0.000000
64.076431 76.480002 290.212201 -0.193584 -0.107212 12.063571 0.211716 0.064385 -12.063871 -0.000000 0.000000 0.000000 -0.000000 0.000000 0.000000 0.000000 0.000000 0.000000 -2.530064 -3.289981 0.323037 2.552728 3.272435 -0.468639 -4.137194 14.750917 2.766952 15.077953 -23.268088 -1.765348 0.000000 0.000000 0.000000 0.000000 0.000000 0.000000 0.852811 -0.583785 -0.079901 -0.322736 -1.749863 -0.070637 -6.302115 5.289298 0.596008 5.287494 -4.797369 0.195684 0.000000 0.000000 0.000000 0.000000 0.000000 0.000000 0.211716 0.064385 -12.063871 -0.000000 0.000000 0.000000 -2.139219 0.299958 1.554430 0.000000 0.000000 0.000000 0.211716 0.064385 -12.063871 -0.000000 0.000000 0.000000 -0.295246 3.886968 0.913903 0.000000 0.000000 0.000000
64.033030 76.454992 290.307066 -0.240514 -0.132624 12.083988 0.262949 0.079333 -12.084448 -0.000000 0.000000 0.000000 -0.890167 -0.353074 -0.014464 0.000000 0.000000 0.000000 -3.214661 -4.084372 0.374972 3.249450 4.056767 -0.604746 -3.310497 16.111285 2.905721 13.663667 -22.068622 -2.124219 0.000000 0.000000 0.000000 0.000000 0.000000 0.000000 0.888414 -0.585216 -0.080569 -0.136722 -1.927981 -0.138373 -5.236226 4.315693 0.573091 4.628462 -3.164133 0.008258 0.000000 0.000000 0.000000 0.000000 0.000000 0.000000 0.262949 0.079333 -12.084448 -0.000000 0.000000 0.000000 -2.092310 0.383608 1.505296 0.000000 0.000000 0.000000 0.262949 0.079333 -12.084448 -0.000000 0.000000 0.000000 -0.383740 3.239195 0.894434 0.000000 0.000000 0.000000
63.981412 76.429917 290.412762 -0.277275 -0.156957 12.046286 0.303927 0.095631 -12.046920 -0.000000 0.000000 0.000000 -1.081477 -0.442402 -0.018418 0.000000 0.000000 0.000000 -3.834352 -4.902431 0.423832 5.290363 6.280071 -1.372326 -4.084252 15.775909 3.416966 12.359817 -20.384837 -2.522825 0.000000 0.000000 0.000000 0.000000 0.000000 0.000000 0.916324 -0.578178 -0.080212 0.150445 -2.172567 -0.235365 -4.395334 2.932097 0.626417 4.905030 -1.028732 -0.381739 0.000000 0.000000 0.000000 0.000000 0.000000 0.000000 0.282574 0.992587 -12.128059 0.209342 -0.872448 0.082936 -1.887540 0.321137 1.362298 0.000000 0.000000 0.000000 0.303927 0.095631 -12.046920 -0.000000 0.000000 0.000000 -0.389941 1.921594 0.686906 0.000000 0.000000 0.000000
63.927321 76.406837 290.519393 -0.296481 -0.192044 11.948193 0.329817 0.126501 -11.949054 -0.000000 0.000000 0.000000 -1.255043 -0.515233 -0.022172 0.000000 0.000000 0.000000 -4.297470 -5.602089 0.463176 6.988388 8.959784 -2.131556 -5.600912 12.027416 3.423832 11.185332 -18.479688 -2.483660 0.000000 0.000000 0.000000 0.000000 0.000000 0.000000 0.951870 -0.588475 -0.081832 0.460073 -2.392485 -0.338722 -4.190596 1.946152 0.747512 5.154877 -0.074013 -0.646760 0.000000 0.000000 0.000000 0.000000 0.000000 0.000000 0.426511 1.125890 -12.024325 0.113634 -0.997605 0.075204 -1.620923 0.277179 1.169807 0.000000 0.000000 0.000000 0.916972 0.727140 -11.805721 -0.451886 -0.708029 -0.150500 -0.458277 1.162843 0.626522 0.000000 0.000000 0.000000
